<?xml version="1.0" standalone="no"?>
<!DOCTYPE svg PUBLIC "-//W3C//DTD SVG 20010904//EN"
 "http://www.w3.org/TR/2001/REC-SVG-20010904/DTD/svg10.dtd">
<svg version="1.0" xmlns="http://www.w3.org/2000/svg"
 width="700.000000pt" height="700.000000pt" viewBox="0 0 700.000000 700.000000"
 preserveAspectRatio="xMidYMid meet">
<metadata>
Created by potrace 1.14, written by Peter Selinger 2001-2017
</metadata>
<g transform="translate(0.000000,700.000000) scale(0.100000,-0.100000)"
fill="#000000" stroke="none">
<path d="M3418 6898 c-426 -532 -1013 -1360 -1283 -1810 -5 -9 -53 -86 -105
-172 -52 -85 -99 -163 -105 -173 -5 -10 -44 -79 -87 -153 -339 -597 -573
-1137 -687 -1580 -16 -63 -32 -128 -35 -145 -3 -16 -10 -57 -16 -90 -32 -177
-35 -510 -7 -695 115 -742 549 -1381 1191 -1754 143 -83 441 -211 537 -230 13
-2 60 -14 104 -26 179 -46 320 -63 545 -64 258 -1 378 11 585 58 674 156 1251
600 1592 1227 134 245 237 578 270 869 15 135 6 558 -12 590 -2 3 -6 26 -10
50 -3 25 -9 54 -12 65 -3 11 -7 29 -9 40 -12 93 -127 460 -193 620 -5 11 -30
72 -56 135 -58 139 -102 235 -206 445 -75 152 -99 197 -196 375 -107 198 -280
487 -437 733 -44 70 -85 135 -91 144 -5 9 -13 22 -18 27 -4 6 -76 112 -159
236 -287 427 -633 899 -936 1278 -41 50 -78 92 -82 92 -5 0 -42 -42 -82 -92z
m-165 -1155 c-16 -90 -81 -353 -117 -474 -55 -187 -127 -422 -171 -564 -55
-176 -145 -474 -150 -495 -2 -8 -18 -62 -35 -120 -18 -58 -34 -115 -36 -126
-2 -12 -13 -51 -24 -85 -62 -202 -198 -796 -225 -984 -3 -23 -7 -50 -9 -60 -5
-24 -13 -91 -21 -165 -3 -30 -10 -89 -14 -130 -11 -98 -11 -386 0 -475 14
-113 35 -247 64 -410 33 -183 138 -586 199 -765 14 -41 26 -77 26 -78 0 -2
-35 15 -77 39 -545 298 -885 839 -949 1510 -5 55 -5 305 0 339 4 24 22 124 30
165 21 107 99 335 171 505 98 231 353 710 564 1062 38 63 86 145 97 165 7 12
48 82 92 155 75 126 247 422 289 498 11 19 32 58 48 85 68 123 165 306 219
413 20 39 38 72 40 72 2 0 -3 -35 -11 -77z"/>
</g>
</svg>
